<?xml version="1.0" standalone="no"?>
<!DOCTYPE svg PUBLIC "-//W3C//DTD SVG 20010904//EN"
 "http://www.w3.org/TR/2001/REC-SVG-20010904/DTD/svg10.dtd">
<svg version="1.0" xmlns="http://www.w3.org/2000/svg"
 width="512.000000pt" height="512.000000pt" viewBox="0 0 512.000000 512.000000"
 preserveAspectRatio="xMidYMid meet">

<g transform="translate(0.000000,512.000000) scale(0.100000,-0.100000)"
fill="#000000" stroke="none">
<path d="M4160 4624 c-30 -8 -811 -218 -1735 -465 -924 -248 -1700 -457 -1724
-466 -66 -25 -152 -110 -187 -185 -25 -54 -29 -75 -29 -148 0 -75 4 -93 31
-150 17 -36 48 -82 68 -103 23 -22 332 -214 784 -483 411 -246 759 -458 773
-473 15 -14 228 -363 474 -776 283 -474 462 -763 486 -786 21 -20 64 -50 96
-65 52 -26 68 -29 153 -29 83 1 102 4 152 29 69 33 138 99 168 160 11 25 231
825 487 1778 436 1619 466 1739 467 1818 1 77 -2 92 -31 151 -80 162 -259 242
-433 193z m144 -183 c7 -11 -2092 -2086 -2109 -2085 -11 1 -1398 825 -1458
866 -36 26 -67 88 -67 135 0 52 38 123 76 145 37 22 3475 947 3521 947 17 1
34 -3 37 -8z m136 -174 c0 -32 -931 -3483 -948 -3510 -24 -43 -86 -77 -140
-77 -42 0 -109 26 -129 52 -14 18 -872 1453 -879 1471 -3 9 370 385 1038 1045
574 568 1046 1032 1050 1032 5 0 8 -6 8 -13z"/>
</g>
</svg>
