<?xml version="1.0" standalone="no"?>
<!DOCTYPE svg PUBLIC "-//W3C//DTD SVG 20010904//EN"
 "http://www.w3.org/TR/2001/REC-SVG-20010904/DTD/svg10.dtd">
<svg version="1.0" xmlns="http://www.w3.org/2000/svg"
 width="512.000000pt" height="512.000000pt" viewBox="0 0 512.000000 512.000000"
 preserveAspectRatio="xMidYMid meet">

<g transform="translate(0.000000,512.000000) scale(0.100000,-0.100000)"
fill="#000000" stroke="none">
<path d="M2405 4629 c-827 -63 -1535 -610 -1804 -1392 -79 -229 -111 -422
-111 -669 0 -390 92 -736 284 -1063 92 -156 323 -444 345 -430 5 2 11 35 15
72 14 136 73 328 145 472 98 192 297 418 470 531 l23 16 -50 87 c-53 93 -94
209 -113 321 -18 109 -7 303 25 409 97 325 334 563 663 664 81 25 101 27 263
27 163 0 181 -2 264 -28 266 -81 478 -260 596 -501 77 -155 93 -229 94 -420 1
-127 -3 -174 -18 -229 -25 -93 -68 -194 -112 -268 -20 -33 -32 -63 -28 -67 5
-4 36 -27 69 -52 305 -228 528 -614 562 -975 3 -35 9 -64 13 -64 12 0 131 130
201 220 216 278 359 615 415 975 23 149 23 441 0 590 -107 690 -519 1259
-1134 1563 -244 120 -498 190 -771 211 -147 12 -157 12 -306 0z"/>
<path d="M2465 3349 c-200 -31 -379 -160 -471 -342 -123 -241 -83 -518 104
-718 83 -90 92 -105 92 -164 0 -82 -30 -118 -153 -183 -296 -157 -502 -435
-573 -772 -23 -110 -25 -343 -3 -365 25 -25 192 -114 300 -160 455 -192 981
-211 1459 -53 128 43 371 158 425 202 l30 24 -1 134 c-1 199 -37 349 -127 522
-102 198 -266 363 -462 467 -125 66 -155 101 -155 184 0 59 9 74 92 164 92 99
144 204 166 334 14 88 14 106 0 191 -34 207 -157 378 -341 472 -115 59 -258
82 -382 63z"/>
</g>
</svg>
